<svg width="156" height="43" viewBox="0 0 156 43" fill="none" xmlns="http://www.w3.org/2000/svg">
<path d="M77.1052 15.1979C76.5809 14.6258 75.9443 14.6258 75.2327 14.6258C74.1467 14.6258 73.2854 15.6555 72.7236 16.5327C72.2368 17.2955 71.8249 18.1726 71.4878 19.0498C71.4878 19.0498 70.8512 20.8422 70.589 21.6431C70.5141 21.2617 70.5516 20.7659 70.5516 20.3846C70.5516 19.393 70.5141 18.4014 70.5141 17.4099C70.5141 17.1048 70.5141 16.7615 70.4018 16.4946C70.2894 16.1895 70.0647 15.9606 69.7651 15.8844C69.2408 15.8081 69.1285 16.3039 69.091 16.6853C69.0161 17.3717 68.9412 18.0201 68.9038 18.7065C68.7914 20.0795 68.7165 21.4524 68.7165 22.7872C68.7165 25.495 68.9038 28.2409 69.4281 30.9105C69.4655 31.1393 69.6153 31.2918 69.9149 31.4063C70.252 31.5207 70.8137 31.5588 71.1133 31.2918C71.4504 31.0249 71.338 30.5672 71.338 30.1859C71.338 29.6901 71.3755 29.1943 71.3755 28.6985C71.4129 27.6688 71.5253 26.6391 71.6751 25.6094C71.9372 23.5881 72.424 21.605 73.0981 19.6981C73.4726 18.6684 73.922 17.6387 74.5587 16.7615C74.8208 16.3802 75.2327 15.6937 75.4949 16.342C75.6821 16.7234 75.6447 17.181 75.7196 17.6005C75.7945 18.2107 75.8319 18.8591 75.757 19.4693C75.7196 19.66 75.6821 19.8507 75.6821 20.0795C75.7945 20.8422 76.918 20.5371 77.1801 20.0795C77.5546 19.4693 77.7044 18.6684 77.7419 17.9438C77.7793 17.5624 77.7793 17.2192 77.7419 16.8378C77.6295 16.2657 77.4797 15.6555 77.1052 15.1979Z" fill="url(#paint0_linear)"/>
<path d="M108.563 12.6808C108.413 12.9859 108.188 13.558 108.263 13.9775C108.301 14.1301 108.338 14.2445 108.45 14.3207C108.787 14.5496 109.312 14.2826 109.574 14.0538C109.911 13.7105 110.023 13.1385 110.173 12.6808C110.211 12.5283 110.248 12.4139 110.211 12.2613C109.986 11.346 108.787 12.2232 108.563 12.6808Z" fill="url(#paint0_linear)"/>
<path d="M154.888 19.66C154.775 19.5074 154.513 19.4693 154.363 19.5074C154.176 19.5456 154.026 19.66 153.914 19.7744C152.603 20.8422 151.405 22.177 150.206 23.3974C149.832 22.7109 149.308 22.1008 148.821 21.4906C148.297 20.8422 147.772 20.1558 147.248 19.5074C146.873 19.0116 146.462 18.5158 146.199 17.9438C145.713 16.9522 145.563 14.9691 147.173 15.1598C147.473 15.1979 147.735 15.2742 148.034 15.2742C148.147 15.2742 148.259 15.2742 148.371 15.1979C148.484 15.1598 148.559 15.0453 148.559 14.9309C148.559 14.7402 148.334 14.6258 148.147 14.5496C147.098 14.2445 145.825 14.2826 145.038 15.1598C144.289 15.9988 144.289 17.3717 144.664 18.3633C144.851 18.8591 145.151 19.3167 145.413 19.7362C144.851 20.5371 144.289 21.338 143.803 22.2152C143.466 22.7491 143.091 23.3974 142.679 24.0076C142.454 24.3509 142.155 24.7704 141.968 24.9611C141.705 24.656 141.743 23.9313 141.743 23.55C141.743 23.0923 141.743 22.5965 141.705 22.1389C141.631 19.8888 141.556 17.7912 141.256 15.5411C141.256 15.4267 141.219 15.3123 141.181 15.1979C141.069 15.0072 140.882 14.8928 140.694 14.8165C140.432 14.7021 140.02 14.6258 139.721 14.6258C139.121 14.664 138.672 15.5793 138.522 16.1132C138.522 15.77 138.485 15.5411 138.335 15.2742C138.148 14.9309 137.923 14.5496 137.474 14.3207C136.537 13.7868 135.601 13.7868 134.628 14.1301C133.317 14.664 132.268 15.5793 131.444 16.7234C130.92 17.448 130.433 18.3252 130.021 19.2786C129.871 19.2786 129.759 19.393 129.684 19.5837C129.235 20.6897 128.823 21.6812 128.299 22.7109C127.812 23.6262 127.25 24.3509 126.538 25.0755C126.351 25.2661 125.977 25.5331 125.752 25.5712C125.415 25.6475 125.04 25.4187 124.816 25.1517C124.329 24.656 124.104 24.0458 123.842 23.3974C123.468 22.5203 123.131 21.605 122.868 20.6897C122.606 19.8125 122.344 18.9354 121.745 18.287C121.333 17.8294 120.734 17.5624 120.135 17.5624C118.899 17.6005 118.3 18.4777 117.85 19.393C117.588 19.9651 117.363 20.5753 117.176 21.1092C117.064 21.4143 116.839 21.9482 116.689 22.5203C116.39 23.5118 116.128 24.5415 116.053 24.4653C115.865 24.3127 116.053 21.1473 116.09 19.4693C116.09 19.3549 116.09 19.2405 116.165 19.126C116.202 19.0498 116.315 18.9735 116.352 18.8972C116.465 18.7447 116.465 18.5158 116.465 18.287C116.427 17.9056 116.352 17.5243 116.24 17.1429C116.202 17.0666 116.202 16.9522 116.128 16.9141C116.09 16.8759 116.015 16.8759 115.94 16.8759C115.154 16.7997 114.742 16.9522 114.704 17.8675C114.63 18.8972 114.592 19.9269 114.555 20.9566C113.881 22.4821 113.281 23.8932 112.42 25.3806C112.27 25.6475 110.548 28.012 110.211 27.8595C109.724 27.6307 109.649 26.2959 109.499 25.1899C109.274 23.6644 109.349 22.1389 109.424 20.5753C109.462 19.4693 109.611 18.3633 109.761 17.2573C109.799 17.1429 109.799 17.0285 109.799 16.8759C109.761 16.5708 109.499 16.3039 109.199 16.2657C108.825 16.1895 108.188 16.2276 107.851 16.4564C107.252 16.8378 107.215 18.0201 107.14 18.6303C107.027 19.5456 107.027 20.3846 107.102 21.2617C107.102 21.2999 107.102 21.2999 107.102 21.338C107.065 21.4524 106.353 23.016 106.129 23.7025C105.642 25.0373 105.192 26.4103 104.631 27.7069C104.219 28.6985 103.133 30.2621 102.646 30.224C102.309 30.1859 102.009 28.5078 101.859 27.6688C101.784 27.2112 101.709 26.7916 101.672 26.334C101.635 26.1433 101.635 25.9526 101.635 25.7619C101.372 22.5203 101.41 19.2786 101.709 16.0369C101.784 15.2742 101.859 14.5496 101.972 13.7868C102.084 12.9097 102.084 12.1469 102.159 11.2698C102.196 10.7358 102.121 10.507 102.87 10.2782C103.207 10.1638 103.657 10.0494 104.031 9.97308C104.818 9.74426 105.642 9.51544 106.428 9.28661C108.038 8.82897 109.649 8.40946 111.259 7.95181C111.371 7.91367 111.521 7.87553 111.634 7.76112C111.708 7.68485 111.746 7.64671 111.746 7.5323C111.746 7.34161 111.559 7.2272 111.409 7.18906C110.847 6.96024 110.211 7.07465 109.649 7.15092C107.552 7.5323 105.567 7.98994 103.545 8.75269C103.32 8.82897 102.833 9.09593 102.608 9.01965C102.384 8.90524 102.496 8.562 102.533 8.25691C102.721 6.73141 102.908 5.20592 103.095 3.68043C103.133 3.26092 103.17 2.80327 102.908 2.53631C102.571 2.15494 101.934 2.30748 101.597 2.65072C101.26 2.99396 101.148 3.52788 101.035 4.02366C100.923 4.48131 100.848 4.93896 100.736 5.39661C100.474 6.57886 100.212 7.76112 100.137 8.98151C100.099 9.32475 100.024 9.89681 99.7621 10.1638C99.5749 10.3545 99.2378 10.4307 98.9382 10.4689C98.4888 10.5451 98.4888 10.5833 98.0394 10.5833C97.6649 10.5833 96.9909 10.507 96.6538 10.507C96.1295 10.507 95.3805 10.5833 94.9311 10.8884C94.0698 11.4986 95.0809 11.9181 95.7176 11.9181C96.6538 11.9181 97.7024 11.88 98.6386 11.613C98.8633 11.5367 99.5 11.2316 99.6123 11.4604C99.7621 11.7274 99.6498 12.0325 99.6123 12.3376C99.2378 14.7402 99.0506 17.0666 98.9382 19.4693C98.9382 19.7362 98.9008 20.0032 98.9008 20.2702C98.6386 20.7278 98.4888 21.2999 98.3016 21.7194C97.8896 22.5965 97.4028 23.4356 96.8411 24.1983C96.3917 24.8085 95.8674 25.4187 95.2682 25.9145C94.7813 26.3721 94.1073 26.9823 93.3957 26.9442C93.1336 26.9442 92.8714 26.8298 92.6842 26.601C92.1224 25.9908 91.9352 25.228 91.9352 25.228C91.7854 24.656 91.7105 24.0458 91.7479 23.5118C91.7479 23.2067 91.7854 22.5584 91.7854 22.5584C91.7854 22.5584 92.2348 22.3296 92.4595 22.177C92.834 21.9101 93.1336 21.6812 93.3957 21.3761C94.0698 20.6515 94.5941 19.9269 95.006 19.0879C95.418 18.0582 95.755 16.7234 94.5941 16.1132C92.7216 15.1216 91.4858 16.9904 90.8117 18.4777C90.6245 18.8972 90.4372 19.3167 90.25 19.7362C90.0627 20.232 90.0253 20.7659 89.8006 21.2617C89.6882 21.5287 89.5384 21.7957 89.3886 22.0626C88.9392 22.8254 88.4898 23.6262 87.9281 24.3127C87.3664 25.0373 86.7672 25.6857 86.1305 26.334C85.756 26.7154 85.3441 27.0967 84.8947 27.44C84.5202 27.7451 84.0334 27.9739 83.6214 28.2027C81.8238 29.2324 80.7378 25.9526 80.9625 24.6178C81.7489 24.1983 82.4979 23.4737 83.0971 22.8254C83.7338 22.1389 84.2955 21.4143 84.7823 20.6134C85.4939 19.4311 86.2429 17.8294 85.8684 16.4183C85.756 15.9988 85.4939 15.5793 85.1194 15.3886C84.8572 15.236 84.5577 15.1979 84.2581 15.1216C83.172 14.9309 82.3856 15.3886 81.7115 16.2657C80.9625 17.181 80.1761 18.0963 79.7641 19.2405C79.5769 19.7362 79.3896 20.2702 79.2024 20.8041C79.0151 21.3761 78.8653 21.7957 78.753 22.3677C78.6406 22.9398 78.5283 23.55 78.4534 24.122C78.3785 24.8466 78.6781 26.2959 78.6781 26.2959C78.8279 26.8298 79.0151 27.3256 79.3147 27.7832C80.7753 30.0333 83.9959 30.4528 86.0931 28.9273C87.4038 27.9739 88.3775 26.5628 89.2763 25.228C89.3512 25.1136 89.4261 24.9611 89.501 24.8466C89.5759 25.1899 89.6508 25.4568 89.6882 25.6857C90.2125 28.2027 93.0961 28.7366 95.1558 27.8214C95.7176 27.5925 96.2419 27.173 96.6913 26.7535C97.59 25.9145 98.2641 24.9992 98.8259 23.9695C98.8259 24.5415 98.8633 25.1136 98.9008 25.6857C99.0131 27.0205 99.2753 28.2027 99.6872 29.4994C99.7621 29.8045 99.8745 30.1096 100.024 30.3766C100.474 31.1774 101.185 31.6732 102.047 31.8639C105.005 32.6267 106.54 28.4697 107.439 26.2196C107.439 26.1814 107.477 26.1433 107.477 26.1052C107.552 26.3721 107.626 26.6391 107.739 26.9061C108.413 28.5841 109.462 29.6138 110.997 28.9273C111.446 28.7366 111.746 28.3171 112.046 27.9739C112.607 27.2493 113.094 26.4484 113.544 25.6475C113.881 24.9992 114.218 24.3509 114.48 23.6644C114.442 25.3043 114.405 26.9442 114.63 28.5841C114.667 28.8511 114.704 29.118 114.854 29.3468C115.116 29.7282 115.641 29.8426 116.015 29.6138C116.652 29.2324 116.764 28.279 116.914 27.6307C117.139 26.7154 117.363 25.8382 117.663 24.9611C118.225 23.2449 118.899 21.605 119.723 20.0413C119.798 19.8888 119.872 19.7362 120.06 19.7362C120.172 19.7362 120.247 20.0413 120.247 20.1176C120.621 21.4524 121.108 22.7491 121.67 24.0458C122.007 24.8085 122.382 25.5712 122.943 26.1814C124.067 27.3637 126.314 27.5163 127.624 26.2196C128.111 25.7619 128.523 25.1899 128.86 24.5797C128.935 24.4271 129.01 24.3127 129.085 24.1602C129.085 24.2364 129.085 24.3127 129.085 24.389C129.085 24.9611 129.197 25.5331 129.422 26.067C130.021 27.4018 131.482 28.2027 132.905 28.1646C134.328 28.1264 135.676 27.3256 136.65 26.2577C137.848 24.9229 138.298 23.2449 138.972 21.6431C139.196 22.8254 139.159 24.2746 139.159 25.4187C139.159 26.601 139.084 27.4018 139.121 28.5841C139.121 28.7748 139.121 28.9655 139.084 29.118C139.047 29.3468 138.934 29.4231 138.822 29.6138C137.886 31.2918 137.024 33.1606 136.425 35.0293C135.826 36.8599 135.489 38.8049 135.714 40.7118C135.788 41.3982 136.051 42.161 136.575 42.5424C136.874 42.7712 137.286 42.8856 137.698 42.9237C137.998 42.9619 138.335 42.9237 138.635 42.8093C139.234 42.5424 139.533 41.894 139.796 41.322C140.545 39.4151 140.994 37.432 141.331 35.4107C141.631 33.6182 141.818 31.8258 141.893 30.0333C141.93 29.1562 141.893 28.2409 141.968 27.3637C142.005 26.5628 142.529 26.2577 142.904 25.7238C143.466 24.9229 143.878 24.4271 144.364 23.6644C144.814 23.016 145.376 22.0626 145.75 21.3761C145.862 21.1473 145.937 20.9566 146.012 20.7278C146.162 20.9566 146.312 21.1855 146.424 21.338C146.948 22.0626 147.435 22.6728 147.997 23.3593C148.222 23.6644 148.446 23.9313 148.634 24.3127C148.709 24.4653 148.783 24.656 148.783 24.656C148.783 24.656 148.634 24.8848 148.559 24.9992C148.334 25.3043 148.147 25.4568 147.885 25.8001C147.585 26.1433 147.36 26.4865 147.098 26.7916C146.724 27.2874 146.349 27.8595 146.05 28.4315C145.563 29.2324 145.338 30.224 145.376 31.1774C145.413 31.5588 145.525 31.8639 145.675 32.169C146.462 33.8089 148.783 33.847 150.169 33.0843C151.967 32.1309 152.341 30.3003 152.304 28.3934C152.304 28.279 152.266 27.8976 152.229 27.6688C152.004 26.3721 150.843 24.3127 150.843 24.3127C150.843 24.3127 151.33 23.8932 151.704 23.5118C152.079 23.1305 152.491 22.6347 152.865 22.2533C153.465 21.605 154.026 21.1855 154.626 20.6134C154.738 20.499 154.888 20.4227 155 20.2702C154.963 20.0413 155 19.8125 154.888 19.66ZM92.0475 19.8507C92.3097 18.9354 92.8714 16.9904 93.4332 16.9904C93.6953 16.9904 93.6953 17.448 93.7328 17.715C93.7328 17.9438 93.6953 18.2107 93.6204 18.4396C93.2834 19.5456 92.7591 20.499 91.9352 21.338C91.8603 20.8422 91.9352 20.2702 92.0475 19.8507ZM81.5617 20.3083C81.8987 19.1642 82.2358 17.9819 82.9099 17.0285C83.0597 16.7997 83.2469 16.5708 83.4716 16.3802C83.7338 16.1513 83.921 15.9606 84.0708 16.3039C84.4079 16.9141 83.9959 18.0201 83.7338 18.554C83.0971 20.0795 82.1983 21.4524 81.0749 22.6347C81.1123 21.8338 81.337 21.071 81.5617 20.3083ZM137.886 17.715C137.661 18.8591 137.137 19.8888 136.762 20.9948C136.35 22.1389 135.901 23.3211 135.264 24.3509C134.628 25.3806 133.766 26.2959 132.643 26.7154C132.493 26.7535 132.343 26.8298 132.193 26.7535C132.081 26.7154 132.006 26.6391 131.931 26.5628C131.444 26.0289 131.182 25.2661 131.145 24.5034C131.032 23.3974 131.295 22.2914 131.557 21.2236C131.894 19.8888 132.306 18.5921 132.98 17.448C133.654 16.2657 134.665 15.3886 135.938 14.8928C136.163 14.8165 136.388 14.8165 136.612 14.8547C136.8 14.8928 136.987 15.0835 137.099 15.236C137.436 15.6174 137.811 16.1895 137.886 16.8759C137.923 17.2573 137.923 17.448 137.886 17.715ZM138.784 32.9699C138.747 33.3131 138.71 33.6182 138.672 33.9615C138.597 34.6479 138.522 35.3344 138.41 36.059C138.185 37.7371 137.923 39.6058 137.249 41.0169C136.238 40.4448 137.174 34.381 138.822 32.169C138.859 32.2453 138.784 32.8936 138.784 32.9699ZM149.757 30.6054C149.57 31.1393 149.308 31.5588 148.896 31.9783C148.746 32.1309 148.596 32.2834 148.371 32.3216C148.034 32.3978 147.735 32.3978 147.51 32.1309C147.285 31.902 147.098 31.6351 146.986 31.2918C146.911 31.063 146.836 30.1859 146.948 29.7282C147.173 28.9655 147.473 28.2409 147.847 27.5544C148.034 27.2112 148.259 26.9061 148.484 26.5628L148.521 26.5247C148.709 26.2577 148.896 25.9145 149.195 25.7238C149.308 26.067 149.607 26.7154 149.757 27.4018C149.944 28.1265 149.944 28.9273 149.944 29.1943C150.019 29.6519 149.869 30.3384 149.757 30.6054Z" fill="url(#paint0_linear)"/>
<path d="M67.256 18.5921C67.0313 18.5921 66.8066 18.6684 66.507 18.8209C65.6831 19.3549 64.4473 19.7362 62.8744 20.0032C62.6872 20.0032 62.4625 20.0413 62.2752 20.1176C61.6012 20.1939 60.9271 20.2702 60.2904 20.2702C59.1295 20.3083 58.1933 20.232 57.5192 20.0413C57.257 19.9651 57.0323 20.0032 56.8825 20.0795C56.7327 20.1557 56.6578 20.3464 56.6578 20.5753C56.6578 20.8041 56.7327 20.9948 56.8825 21.1855C57.0323 21.3761 57.2196 21.5287 57.4817 21.5668C58.6801 21.8338 59.9908 21.9101 61.3016 21.7957C61.3765 23.1305 61.2267 24.4271 60.8522 25.6857C60.4777 26.9823 59.8785 28.012 59.1295 28.8129C58.3805 29.6138 57.5566 30.0333 56.6578 30.0333C55.8714 30.0715 55.0475 29.6519 54.2236 28.8511C53.3997 28.0502 52.6882 26.9061 52.1265 25.4568C51.5647 24.0076 51.2651 22.4059 51.1902 20.6897C51.1153 17.6387 51.5273 14.664 52.3886 12.0325C53.2499 9.40103 54.5232 7.26534 56.171 5.73984C57.8188 4.21435 59.7661 3.37533 62.0131 3.29906C63.7732 3.26092 64.672 3.94739 64.7095 5.39661C64.7095 5.77798 64.672 6.15935 64.5971 6.50259C64.4848 7.03651 64.4848 7.11279 64.4848 7.15092C64.4473 7.5323 64.4848 7.8374 64.6346 8.06622C64.8218 8.37132 65.084 8.40946 65.2338 8.40946C65.5333 8.40946 65.7955 8.18063 66.0202 7.79926C66.2074 7.41789 66.3198 6.88396 66.2823 6.19749C66.2449 5.09151 65.8704 4.09994 65.1214 3.22278C64.4099 2.38376 63.0617 1.96425 61.1518 2.00239C60.7773 2.00239 60.4777 2.04052 60.253 2.07866C58.1933 2.34562 56.1335 3.29905 54.2236 4.93896C52.3137 6.57886 50.7408 8.82897 49.5799 11.613C48.4564 14.397 47.9321 17.6005 48.007 21.1473C48.0445 22.7109 48.3815 24.3127 48.9807 25.8763C49.5799 27.4781 50.591 28.8129 51.9018 29.8808C53.175 30.9105 54.7854 31.4063 56.6578 31.4063C56.7702 31.4063 56.8825 31.4063 56.9949 31.4063C58.3056 31.3681 59.504 30.8342 60.59 29.8808C61.6386 28.8892 62.4625 27.6307 63.0617 26.1052C63.6234 24.6178 63.8481 23.0542 63.7732 21.4906C65.2338 21.1092 66.4321 20.6134 67.256 19.9651C67.668 19.6981 67.8552 19.393 67.8552 19.0879C67.8552 18.9354 67.7803 18.7828 67.668 18.7065C67.5556 18.6303 67.4058 18.5921 67.256 18.5921Z" fill="url(#paint0_linear)"/>
<path d="M72.7236 34.8768H73.8471V42.8856H72.7236V34.8768Z" fill="url(#paint0_linear)"/>
<path d="M80.2884 42.6949C79.7267 42.5042 79.3147 42.2754 78.9777 41.9703L79.3896 41.0931C79.6892 41.3601 80.0637 41.5889 80.5506 41.7796C81.0374 41.9703 81.4868 42.0466 82.0111 42.0466C82.6477 42.0466 83.1346 41.9322 83.4716 41.7033C83.8087 41.4745 83.9585 41.1694 83.9585 40.788C83.9585 40.5211 83.8836 40.2923 83.6963 40.1016C83.5091 39.9109 83.3218 39.7965 83.0597 39.7202C82.7975 39.6439 82.423 39.5295 81.9736 39.4151C81.3745 39.2625 80.8876 39.11 80.5506 38.9956C80.2135 38.8812 79.8765 38.6142 79.6143 38.3091C79.3522 38.004 79.2398 37.5845 79.2398 37.0887C79.2398 36.6692 79.3522 36.2878 79.5769 35.9446C79.8016 35.6014 80.1386 35.3344 80.588 35.1056C81.0374 34.8768 81.5991 34.8005 82.2732 34.8005C82.7226 34.8005 83.2095 34.8768 83.6589 34.9912C84.1083 35.1056 84.4828 35.2963 84.8198 35.5251L84.4453 36.4404C84.1083 36.2116 83.7712 36.059 83.3967 35.9446C83.0222 35.8302 82.6477 35.792 82.3107 35.792C81.674 35.792 81.1872 35.9065 80.8876 36.1353C80.5506 36.3641 80.4008 36.6692 80.4008 37.0506C80.4008 37.3175 80.4757 37.5464 80.6629 37.737C80.8502 37.9277 81.0749 38.0422 81.337 38.1566C81.5991 38.271 81.9736 38.3472 82.423 38.4617C83.0222 38.6142 83.4716 38.7668 83.8461 38.8812C84.2206 38.9956 84.5202 39.2625 84.7823 39.5295C85.0445 39.8346 85.1568 40.216 85.1568 40.7118C85.1568 41.1313 85.0445 41.5126 84.8198 41.8559C84.5951 42.1991 84.2581 42.4661 83.8087 42.6949C83.3593 42.8856 82.7975 43 82.1234 43C81.4119 42.9619 80.8127 42.8856 80.2884 42.6949Z" fill="url(#paint0_linear)"/>
<path d="M90.1751 34.8768H91.2985V41.894H95.5678V42.8856H90.1751V34.8768Z" fill="url(#paint0_linear)"/>
<path d="M105.342 40.8643H101.185L100.324 42.8856H99.1629L102.721 34.8768H103.844L107.402 42.8856H106.203L105.342 40.8643ZM104.968 39.949L103.282 36.0209L101.56 39.949H104.968Z" fill="url(#paint0_linear)"/>
<path d="M118.824 34.8768V42.8856H117.888L113.169 36.898V42.8856H112.046V34.8768H112.982L117.7 40.8643V34.8768H118.824Z" fill="url(#paint0_linear)"/>
<path d="M124.666 34.8768H127.962C128.785 34.8768 129.534 35.0293 130.171 35.3725C130.808 35.7158 131.332 36.1734 131.669 36.7836C132.006 37.3938 132.193 38.0803 132.193 38.8812C132.193 39.6821 132.006 40.3685 131.669 40.9787C131.295 41.5889 130.808 42.0466 130.171 42.3898C129.534 42.733 128.785 42.8856 127.962 42.8856H124.666V34.8768ZM127.924 41.894C128.561 41.894 129.122 41.7796 129.609 41.5126C130.096 41.2457 130.471 40.9025 130.733 40.4448C130.995 39.9872 131.107 39.4532 131.107 38.8812C131.107 38.3091 130.995 37.7752 130.733 37.3175C130.471 36.8599 130.096 36.5167 129.609 36.2497C129.122 35.9827 128.561 35.8683 127.924 35.8683H125.789V41.894H127.924Z" fill="url(#paint0_linear)"/>
<path d="M19.4207 18.4923C19.079 18.3105 18.7573 18.1453 18.4356 18.0105C17.9593 17.7887 17.5046 17.6334 17.0716 17.5003C16.2056 17.2564 15.4261 17.2342 14.6034 17.3673C14.4671 17.3828 14.3201 17.42 14.1775 17.4562C14.1162 17.4717 14.0557 17.487 13.9972 17.5003C13.9333 17.52 13.8713 17.5377 13.81 17.5552C13.6638 17.5969 13.5218 17.6375 13.3693 17.7C13.0742 17.7907 12.7791 17.9123 12.4771 18.0367L12.4766 18.0369C12.3356 18.095 12.1932 18.1537 12.0486 18.2101C11.7338 18.3483 11.4138 18.4999 11.0832 18.6564C10.4589 18.952 9.79681 19.2654 9.06071 19.541C9.38548 18.3432 10.035 17.3451 10.8794 16.48C11.3124 16.0586 11.8104 15.6815 12.3733 15.371C12.5507 15.2732 12.7366 15.1929 12.9204 15.1137C13.0282 15.0672 13.1353 15.0209 13.2394 14.9717L13.7157 14.8387C13.7981 14.8145 13.887 14.7969 13.9788 14.7788C14.0557 14.7636 14.1347 14.748 14.2137 14.7277C14.8632 14.6168 15.556 14.639 16.2272 14.7943C16.8767 14.9496 17.5046 15.2379 18.0243 15.6372C18.3595 15.8948 18.6587 16.1801 18.9161 16.4931C18.8499 16.331 18.7837 16.1715 18.7168 16.0143C18.3271 15.1714 17.9374 14.4173 17.4611 13.774C16.9847 13.1308 16.4435 12.5763 15.729 12.0217C15.2734 11.6571 14.7523 11.3213 14.178 10.9511C13.8789 10.7584 13.5653 10.5562 13.2391 10.336C14.2784 9.84803 15.4475 9.80367 16.595 10.1142C17.158 10.2695 17.7209 10.5135 18.2189 10.8683C18.7168 11.2232 19.1715 11.6669 19.5396 12.177C20.2757 13.1973 20.6438 14.3951 20.7087 15.5707C20.729 16.1119 20.6922 16.6531 20.5623 17.1943C20.7968 16.9285 21.0516 16.6777 21.3153 16.4359C22.1381 15.704 23.1124 15.1273 24.1516 14.7502C24.6712 14.5506 25.2342 14.4175 25.7971 14.3509C26.36 14.2844 26.9446 14.2622 27.5075 14.3288C28.0705 14.3953 28.6334 14.5506 29.153 14.7946L29.5427 14.9942C29.6347 15.0413 29.7159 15.0996 29.8015 15.1611C29.8368 15.1864 29.8729 15.2123 29.9108 15.2382C30.149 15.3934 30.3655 15.5931 30.5603 15.8149C30.3375 15.8572 30.1272 15.893 29.9259 15.9273C29.5992 15.983 29.2962 16.0346 29.0015 16.1032C28.8675 16.1344 28.7352 16.1639 28.6041 16.193C28.2694 16.2676 27.9425 16.3403 27.6158 16.4359C27.4715 16.4803 27.3271 16.5222 27.1828 16.5641C26.8941 16.6479 26.6054 16.7317 26.3167 16.8352C25.8837 16.9683 25.4508 17.1235 25.0178 17.2788L22.5903 18.1684C23.1905 18.2375 23.8109 18.4586 24.3465 18.8317C24.9094 19.2087 25.3641 19.7411 25.6672 20.2956C25.992 20.8723 26.1868 21.4712 26.2734 22.0701L26.2807 22.1217C26.2997 22.2556 26.3167 22.3759 26.3167 22.5137C26.3384 22.6689 26.3384 22.802 26.3384 22.9573C26.3384 23.2456 26.3167 23.534 26.2951 23.8001C26.1435 24.9092 25.7754 25.9517 25.0826 26.8611C24.8277 26.1502 24.6562 25.4868 24.4953 24.8646C24.4102 24.5355 24.3281 24.218 24.2382 23.9111C24.1733 23.6893 24.1083 23.4674 24.065 23.2678C24.0434 23.2013 24.0217 23.1323 24.0001 23.0633C23.9568 22.9252 23.9135 22.7872 23.8702 22.6689C23.7402 22.2697 23.5887 21.937 23.4155 21.6264C23.0691 21.0276 22.6793 20.5839 22.0082 20.1625C21.6834 19.9629 21.272 19.7854 20.839 19.608C20.4978 19.4915 20.1443 19.3749 19.7604 19.2584C19.3865 19.8613 19.0658 20.4989 18.8013 21.1651C18.5198 21.8084 18.3033 22.4738 18.1301 23.1392C17.9352 23.8046 17.7837 24.4922 17.697 25.1798C17.4805 26.5551 17.3939 27.9746 17.5022 29.3277C17.5671 30.0153 17.6754 30.6807 17.827 31.3461C18.0002 31.9893 18.2167 32.6326 18.4981 33.2093C18.7796 33.8082 19.1477 34.3405 19.559 34.8285C19.7055 35.0119 19.8764 35.1827 20.0442 35.3504C20.0997 35.4059 20.1548 35.461 20.2086 35.5161C20.4467 35.7157 20.6849 35.9153 20.9664 36.0928C21.1444 36.2255 21.371 36.3458 21.5916 36.4629C21.666 36.5024 21.7397 36.5416 21.8107 36.5808L22.0273 36.6917L22.2438 36.7804L22.6768 36.98C22.8283 37.0466 22.9799 37.0909 23.1315 37.1353L23.5861 37.2905L24.0408 37.3793C24.1166 37.3904 24.1924 37.407 24.2682 37.4236C24.3439 37.4403 24.4197 37.4569 24.4955 37.468C24.5945 37.4752 24.6958 37.4872 24.798 37.4993C25.0085 37.5242 25.2224 37.5495 25.4265 37.5345H25.9028L26.3575 37.4902L26.5956 37.468L26.8338 37.4236L27.2885 37.3349L27.7431 37.2018C27.8947 37.1575 28.0463 37.1131 28.1978 37.0466C29.3886 36.6029 30.4928 35.8932 31.4888 35.0281C33.459 33.2758 35.0179 30.969 36.0571 28.4626C36.5768 27.1983 36.9881 25.9118 37.2479 24.581C37.5078 23.2501 37.6377 21.9193 37.5294 20.5884C37.3562 17.8602 36.6634 15.1985 35.4726 12.7586C34.2817 10.3409 32.6146 8.16719 30.5361 6.50363C28.5009 4.8179 26.0543 3.64232 23.4995 3.06561C20.923 2.5111 18.2167 2.53328 15.6618 3.15434C14.3844 3.46487 13.1287 3.93067 11.9379 4.52955C10.7471 5.12843 9.6212 5.86039 8.60361 6.70326C7.56435 7.54613 6.63336 8.52209 5.81062 9.58677C4.98788 10.6514 4.2734 11.8048 3.68882 13.047C1.35051 17.9489 1.32885 23.9821 3.64552 28.9949C3.73212 29.202 3.83797 29.409 3.94381 29.616C3.99674 29.7195 4.04967 29.823 4.10019 29.9265C4.17616 30.053 4.24797 30.1837 4.32109 30.3169C4.41468 30.4873 4.51042 30.6616 4.61982 30.8359C4.96623 31.4348 5.35595 31.9893 5.76732 32.566C6.61171 33.6529 7.54271 34.6954 8.60361 35.5826C9.66451 36.4699 10.812 37.2462 12.0461 37.9116C12.1977 37.9892 12.3546 38.0668 12.5115 38.1445C12.6685 38.2221 12.8255 38.2998 12.9771 38.3774C13.0976 38.4268 13.215 38.4792 13.3317 38.5312C13.5297 38.6195 13.7254 38.7069 13.9298 38.7767C14.5793 39.0428 15.2505 39.2425 15.9217 39.4421C16.0732 39.4864 16.1598 39.6417 16.1165 39.797C16.0732 39.9301 15.9433 40.0188 15.7918 39.9966C14.3844 39.7304 12.9771 39.3312 11.6564 38.7323C10.9852 38.4439 10.3357 38.1112 9.70781 37.7563C9.07993 37.3793 8.4737 36.98 7.88912 36.5364C5.55081 34.7619 3.55891 32.4551 2.21655 29.7713C1.87013 29.1058 1.56701 28.4182 1.3072 27.7085C1.04739 26.9987 0.809227 26.2889 0.636021 25.5569C0.267948 24.093 0.0514374 22.5847 0.00813675 21.0542C-0.0784645 18.0155 0.52776 14.9545 1.74022 12.1597C2.95268 9.36496 4.81467 6.85853 7.10968 4.88444C9.36139 2.82163 12.0894 1.3577 15.034 0.625733C17.9569 -0.128416 21.0313 -0.217139 23.9975 0.448287C26.9637 1.09153 29.7783 2.44455 32.1166 4.39646C34.4766 6.32619 36.3819 8.81043 37.7243 11.5609C39.0666 14.3113 39.8028 17.35 39.976 20.411C40.0626 21.9858 39.911 23.5606 39.5863 25.0468C39.2615 26.555 38.7852 28.019 38.1789 29.4164C37.5727 30.8138 36.8149 32.1446 35.9272 33.3645C35.0395 34.6067 34.0219 35.7379 32.8311 36.736C31.662 37.712 30.298 38.5327 28.8257 39.0428C27.3534 39.5752 25.7079 39.7082 24.1707 39.4643C24.0733 39.4532 23.9759 39.431 23.8784 39.4088C23.781 39.3866 23.6836 39.3644 23.5861 39.3534C23.3914 39.309 23.1963 39.2646 23.0232 39.2203L22.4603 39.0206C22.4237 39.0066 22.3862 38.9925 22.3481 38.9783C22.2058 38.925 22.0556 38.8688 21.919 38.7988L21.3994 38.5549L21.1396 38.4218L20.8798 38.2665C20.7806 38.2056 20.6794 38.1467 20.5775 38.0873C20.3455 37.9523 20.1094 37.8149 19.8838 37.6454C19.559 37.4236 19.2559 37.1575 18.9528 36.8913C18.6713 36.6029 18.3899 36.3146 18.1517 36.0041C17.6537 35.383 17.2424 34.6954 16.9393 33.9634C16.6361 33.2315 16.398 32.4773 16.2464 31.7232C16.0949 30.969 16.0083 30.1927 15.9866 29.4386C15.965 28.6844 16.0083 27.9081 16.0949 27.1761C16.1815 26.422 16.2897 25.69 16.4629 24.958C16.7877 23.4941 17.264 22.0745 17.9569 20.7659C18.3033 20.1004 18.6713 19.4572 19.126 18.8805C19.2212 18.7489 19.3195 18.6194 19.4207 18.4923Z" fill="url(#paint0_linear)"/>
<defs>
<linearGradient id="paint0_linear" x1="51.295" y1="0.897461" x2="51.295" y2="39.7949" gradientUnits="userSpaceOnUse">
<stop stop-color="#01DF7C"/>
<stop offset="1" stop-color="#03BCA1"/>
</linearGradient>
</defs>
</svg>
